<mxfile host="app.diagrams.net" agent="Mozilla/5.0 (Windows NT 10.0; Win64; x64) AppleWebKit/537.36 (KHTML, like Gecko) Chrome/137.0.0.0 Safari/537.36" version="27.1.6">
  <diagram id="f106602c-feb2-e66a-4537-3a34d633f6aa" name="Page-1">
    <mxGraphModel dx="1270" dy="858" grid="1" gridSize="10" guides="1" tooltips="1" connect="1" arrows="1" fold="1" page="1" pageScale="1" pageWidth="1169" pageHeight="827" background="none" math="0" shadow="0">
      <root>
        <mxCell id="0" />
        <mxCell id="1" parent="0" />
        <mxCell id="H5XLg-262uGlo7exfHj2-715" value="&lt;b&gt;Google &lt;/b&gt;Cloud Platform" style="fillColor=#F6F6F6;strokeColor=none;shadow=0;gradientColor=none;fontSize=14;align=left;spacing=10;fontColor=#717171;9E9E9E;verticalAlign=top;spacingTop=-4;fontStyle=0;spacingLeft=40;html=1;" parent="1" vertex="1">
          <mxGeometry x="240" y="130" width="1230" height="420" as="geometry" />
        </mxCell>
        <mxCell id="H5XLg-262uGlo7exfHj2-716" value="" style="shape=mxgraph.gcp2.google_cloud_platform;fillColor=#F6F6F6;strokeColor=none;shadow=0;gradientColor=none;" parent="H5XLg-262uGlo7exfHj2-715" vertex="1">
          <mxGeometry width="23" height="20" relative="1" as="geometry">
            <mxPoint x="20" y="10" as="offset" />
          </mxGeometry>
        </mxCell>
        <mxCell id="3HNEeKPpStS-Q2vuXZIp-2" value="資料儲存" style="rounded=1;absoluteArcSize=1;arcSize=2;html=1;strokeColor=#4284F3;gradientColor=none;shadow=0;dashed=1;fontSize=12;fontColor=#9E9E9E;align=left;verticalAlign=top;spacing=10;spacingTop=-4;fillColor=none;dashPattern=1 2;strokeWidth=2;" vertex="1" parent="H5XLg-262uGlo7exfHj2-715">
          <mxGeometry x="541.2857142857143" y="80" width="240.14285714285717" height="280" as="geometry" />
        </mxCell>
        <mxCell id="3HNEeKPpStS-Q2vuXZIp-1" value="視覺化" style="rounded=1;absoluteArcSize=1;arcSize=2;html=1;strokeColor=#4284F3;gradientColor=none;shadow=0;dashed=1;fontSize=12;fontColor=#9E9E9E;align=left;verticalAlign=top;spacing=10;spacingTop=-4;fillColor=none;dashPattern=1 2;strokeWidth=2;movable=1;resizable=1;rotatable=1;deletable=1;editable=1;locked=0;connectable=1;" vertex="1" parent="H5XLg-262uGlo7exfHj2-715">
          <mxGeometry x="828.7142857142858" y="230" width="293.19685714285714" height="130" as="geometry" />
        </mxCell>
        <mxCell id="3HNEeKPpStS-Q2vuXZIp-3" value="" style="strokeColor=#dddddd;shadow=1;strokeWidth=1;rounded=1;absoluteArcSize=1;arcSize=2;" vertex="1" parent="H5XLg-262uGlo7exfHj2-715">
          <mxGeometry x="567.6428571428572" y="199" width="199.14285714285714" height="60" as="geometry" />
        </mxCell>
        <mxCell id="3HNEeKPpStS-Q2vuXZIp-4" value="&lt;font color=&quot;#000000&quot;&gt;MySQL&lt;/font&gt;" style="editableCssRules=.*;html=1;fontColor=#999999;shape=image;verticalLabelPosition=middle;verticalAlign=middle;labelPosition=right;align=left;spacingLeft=20;part=1;points=[];imageAspect=0;image=data:image/svg+xml,PHN2ZyB4bWxucz0iaHR0cDovL3d3dy53My5vcmcvMjAwMC9zdmciIHhtbG5zOnY9Imh0dHBzOi8vdmVjdGEuaW8vbmFubyIgd2lkdGg9IjE0LjUxOTk5OTUwNDA4OTM1NSIgaGVpZ2h0PSIyMCIgdmlld0JveD0iMCAwIDE0LjUxOTk5OTUwNDA4OTM1NSAyMCI+JiN4YTsJPHN0eWxlIHR5cGU9InRleHQvY3NzIj4mI3hhOwkuc3Qwe2ZpbGwtcnVsZTpldmVub2RkfSYjeGE7CS5zdDF7ZmlsbDojNjY5ZGY2O30mI3hhOwkuc3Qye2ZpbGw6I2FlY2JmYTt9JiN4YTsJLnN0M3tmaWxsOiM0Mjg1ZjQ7fSYjeGE7CTwvc3R5bGU+JiN4YTsJPGcgY2xhc3M9InN0MCI+JiN4YTsJCTxwYXRoIGNsYXNzPSJzdDEiIGQ9Ik03LjM3IDIuMDNsLTEuNzIuOTYgMS41MiAxLjUtLjAyIDEuNzMgMS4wMi4wMS4wMi0xLjczIDQuMjQgMi41Ni0uMDEgMS4wNyAxLjc3LjAzVjYuMTFMOS4wNSAzLjA0bC0uMjctLjk0eiIvPiYjeGE7CQk8cGF0aCBjbGFzcz0ic3QyIiBkPSJNNy4zNiAyLjAzbC0xLjQyLjM1LS4yOS42MUwuMzkgNS45Mi4zNiA3Ljk3IDIuMTQgOGwuMDItMS4wNyA0LjMxLTIuNDUtLjAyIDEuNzMuODYuMDEuMDYtNC4xOXoiLz4mI3hhOwkJPGcgY2xhc3M9InN0MSI+JiN4YTsJCQk8cGF0aCBkPSJNNy4zNiAyLjAzTDMuOTUgMCAyLjIxLjk1bDMuNDQgMi4wNCAxLjcyLS45NnptLjcxIDExLjc2bC0xLjcyLS4wMi0uMDIgMS43Mi44MiAyLjQ4IDEuNDItLjEyLjI5LS44NSA1LjI3LTIuOTMuMDMtMi4wOS0xLjc5LS4wMi0uMDIgMS4xLTQuMyAyLjQ1eiIvPiYjeGE7CQkJPHBhdGggZD0iTTcuMTUgMTcuOTdsLTMuNDYgMS45NGgtLjA1bC0xLjY2LS45OSAzLjQ5LTEuOTYgMS42OCAxLjAxeiIvPiYjeGE7CQk8L2c+JiN4YTsJCTxwYXRoIGNsYXNzPSJzdDMiIGQ9Ik0xMC44OC4wOWgtLjA1TDcuMzcgMi4wM2wxLjY4IDEuMDEgMy40OS0xLjk2ek0xMC42MiAyMGgtLjA1bC0zLjQyLTIuMDNoMCAwIDBsMS43Mi0uOTYgMy40NCAyLjA0eiIvPiYjeGE7CQk8cGF0aCBjbGFzcz0ic3QyIiBkPSJNLjMzIDEzLjg5di0yaDEuNzZsLS4wMSAxLjA0IDQuMjUgMi41Ni4wMi0xLjcyLjg2LjAxLS4wNiA0LjE4LTEuNjgtMXoiLz4mI3hhOwk8L2c+JiN4YTsJPGNpcmNsZSBjbGFzcz0ic3QyIiBjeD0iMTMuMzgiIGN5PSIxMC4wNCIgcj0iMS4xNCIvPiYjeGE7CTxjaXJjbGUgY2xhc3M9InN0MiIgY3g9IjEuMTQiIGN5PSI5Ljg4IiByPSIxLjE0Ii8+JiN4YTsJPGNpcmNsZSBjbGFzcz0ic3QyIiBjeD0iNy4zMiIgY3k9IjcuOTkiIHI9IjEuMTQiLz4mI3hhOwk8Y2lyY2xlIGNsYXNzPSJzdDIiIGN4PSI3LjIzIiBjeT0iMTIiIHI9IjEuMTQiLz4mI3hhOzwvc3ZnPg==;" vertex="1" parent="3HNEeKPpStS-Q2vuXZIp-3">
          <mxGeometry width="22" height="30" relative="1" as="geometry">
            <mxPoint x="19" y="15" as="offset" />
          </mxGeometry>
        </mxCell>
        <mxCell id="H5XLg-262uGlo7exfHj2-717" value="" style="strokeColor=#dddddd;shadow=1;strokeWidth=1;rounded=1;absoluteArcSize=1;arcSize=2;movable=1;resizable=1;rotatable=1;deletable=1;editable=1;locked=0;connectable=1;" parent="H5XLg-262uGlo7exfHj2-715" vertex="1">
          <mxGeometry x="869.8782857142858" y="270" width="210.85714285714286" height="60" as="geometry" />
        </mxCell>
        <mxCell id="H5XLg-262uGlo7exfHj2-718" value="&lt;font color=&quot;#000000&quot;&gt;Redash&lt;/font&gt;" style="editableCssRules=.*;html=1;fontColor=#999999;shape=image;verticalLabelPosition=middle;verticalAlign=middle;labelPosition=right;align=left;spacingLeft=20;part=1;points=[];imageAspect=0;image=data:image/svg+xml,PHN2ZyB4bWxucz0iaHR0cDovL3d3dy53My5vcmcvMjAwMC9zdmciIHhtbG5zOnY9Imh0dHBzOi8vdmVjdGEuaW8vbmFubyIgd2lkdGg9IjI3MS44OTgxMDE4MDY2NDA2IiBoZWlnaHQ9IjQyMy4wMDQwMjgzMjAzMTI1IiB2aWV3Qm94PSIwLjAwMDQ2MTI3MDM2MzMwMjkwMTQgMCAyNzEuODk4MTAxODA2NjQwNiA0MjMuMDA0MDI4MzIwMzEyNSI+JiN4YTsJPHN0eWxlIHR5cGU9InRleHQvY3NzIj4mI3hhOwkuc3Qwe2ZpbGw6IzQyODVmNDtmaWxsLXJ1bGU6ZXZlbm9kZH0mI3hhOwk8L3N0eWxlPiYjeGE7CTxwYXRoIGNsYXNzPSJzdDAiIGQ9Ik0xOTcuMzc4IDE0NC43NzRhMy4xMSAzLjExIDAgMCAxIDMuMTA1IDIuOTM0bC4wMDUuMTc3djE3LjEwN2EzLjExIDMuMTEgMCAwIDEtMi45MzQgMy4xMDVsLS4xNzcuMDA1aC0xMi40NDF2MzAuNjQ5YzAgMS4yMjcuMjk3IDIuNDM1Ljg2MiAzLjUyMmwuMTYxLjI5MyA4My44OTUgMTQ0LjI2MmExNS4yNiAxNS4yNiAwIDAgMSAuMTgyIDE0LjkzNmwtLjE4Mi4zMjQtMzAuNDMxIDUzLjI4NmExNS4yNiAxNS4yNiAwIDAgMS0xMi44NjEgNy42MjZsLS4zNTUuMDA0SDQ1LjY5MmExNS4yNiAxNS4yNiAwIDAgMS0xMy4wMzUtNy4zMjRsLS4xODEtLjMwNS0zMC40MzEtNTMuMjg2YTE1LjI2IDE1LjI2IDAgMCAxLS4xODItMTQuOTM2bC4xODItLjMyNCA4My42NzQtMTQ0LjI2MmMuNjIxLTEuMDc3IDEuMTYtMi4yODkgMS4yMzQtMy41MjhsLjAwOS0uMjg3di0zMC42NDlINzQuNTJjLTEuNjU4IDAtMy4wMTQtMS4yOTktMy4xMDUtMi45MzRsLS4wMDUtLjE3NnYtMTcuMTA3YTMuMTEgMy4xMSAwIDAgMSAyLjkzNC0zLjEwNWwuMTc2LS4wMDV6bS0zNS43NjkgMjMuMzI3aC01MS4zMnYzNS40MDVjMCAyLjUzMS0uNjI4IDUuMDE4LTEuODI2IDcuMjQybC0uMjE3LjM5TDI4LjAzMyAzNTAuOWE3LjYzIDcuNjMgMCAwIDAtLjEzOSA3LjM3NWwuMTQxLjI1NSAyMC43NDEgMzUuOTIxYTcuNjMgNy42MyAwIDAgMCA2LjMyNyAzLjgxbC4yODEuMDA1aDI1LjU3MmwtMjIuNjA1LTM5LjE1M2MtMS4zMTQtMi4yNzYtMS4zNjEtNS4wNjItLjE0MS03LjM3NWwuMTQxLS4yNTUgMTkuNjc5LTM0LjA4NmgxNDYuNjA2TDIxMi45ODggMjk3LjFoLTU0LjI1OWwtOC44MjEtMTUuMjc4aDU0LjMxMmwtMTYuMzMzLTI4LjQ2aC01NC43OGwtOC44MjEtMTUuMjc4aDU0LjgzM2wtMTUuNDY1LTI2Ljk0NmExNS4yNyAxNS4yNyAwIDAgMS0yLjAzOS03LjE4NWwtLjAwNy0uNDQ2em03Mi44NDQgMTY2LjQwMWwtNTQuMTgxLjAwMSA4LjgyMSAxNS41NTJoNTQuMjg1ek0xMDQuOTIxIDc5Ljc5NWM4LjQyNyAwIDE1LjI1OSA2LjgzMyAxNS4yNTkgMTUuMjYxcy02LjgzMiAxNS4yNTktMTUuMjU5IDE1LjI1OS0xNS4yNTktNi44MzItMTUuMjU5LTE1LjI1OSA2LjgzMi0xNS4yNjEgMTUuMjU5LTE1LjI2MXptNTcuNTc1LTMyLjc0M2MxMi42NDIgMCAyMi44OSAxMC4yNDcgMjIuODkgMjIuODg5cy0xMC4yNDkgMjIuODg5LTIyLjg5IDIyLjg4OS0yMi44ODktMTAuMjQ5LTIyLjg4OS0yMi44ODkgMTAuMjQ3LTIyLjg4OSAyMi44ODktMjIuODg5ek0xMjcuODEgMGM4LjQyNyAwIDE1LjI2MSA2LjgzMyAxNS4yNjEgMTUuMjYxUzEzNi4yMzcgMzAuNTIgMTI3LjgxIDMwLjUycy0xNS4yNTktNi44MzItMTUuMjU5LTE1LjI1OVMxMTkuMzg0IDAgMTI3LjgxIDB6Ii8+JiN4YTs8L3N2Zz4=;movable=0;resizable=0;rotatable=0;deletable=0;editable=0;locked=1;connectable=0;" parent="H5XLg-262uGlo7exfHj2-717" vertex="1">
          <mxGeometry width="20" height="30" relative="1" as="geometry">
            <mxPoint x="20" y="15" as="offset" />
          </mxGeometry>
        </mxCell>
        <mxCell id="3HNEeKPpStS-Q2vuXZIp-6" value="資料讀取" style="rounded=1;absoluteArcSize=1;arcSize=2;html=1;strokeColor=#4284F3;gradientColor=none;shadow=0;dashed=1;fontSize=12;fontColor=#9E9E9E;align=left;verticalAlign=top;spacing=10;spacingTop=-4;fillColor=none;dashPattern=1 2;strokeWidth=2;movable=1;resizable=1;rotatable=1;deletable=1;editable=1;locked=0;connectable=1;" vertex="1" parent="H5XLg-262uGlo7exfHj2-715">
          <mxGeometry x="828.7142857142858" y="80" width="293.19685714285714" height="130" as="geometry" />
        </mxCell>
        <mxCell id="3HNEeKPpStS-Q2vuXZIp-7" value="" style="strokeColor=#dddddd;shadow=1;strokeWidth=1;rounded=1;absoluteArcSize=1;arcSize=2;movable=1;resizable=1;rotatable=1;deletable=1;editable=1;locked=0;connectable=1;" vertex="1" parent="H5XLg-262uGlo7exfHj2-715">
          <mxGeometry x="869.8782857142857" y="120" width="210.85714285714286" height="60" as="geometry" />
        </mxCell>
        <mxCell id="3HNEeKPpStS-Q2vuXZIp-8" value="&lt;font color=&quot;#000000&quot;&gt;FastAPI&lt;/font&gt;" style="editableCssRules=.*;html=1;fontColor=#999999;shape=image;verticalLabelPosition=middle;verticalAlign=middle;labelPosition=right;align=left;spacingLeft=20;part=1;points=[];imageAspect=0;image=data:image/svg+xml,PHN2ZyB4bWxucz0iaHR0cDovL3d3dy53My5vcmcvMjAwMC9zdmciIHhtbG5zOnY9Imh0dHBzOi8vdmVjdGEuaW8vbmFubyIgd2lkdGg9IjI3MS44OTgxMDE4MDY2NDA2IiBoZWlnaHQ9IjQyMy4wMDQwMjgzMjAzMTI1IiB2aWV3Qm94PSIwLjAwMDQ2MTI3MDM2MzMwMjkwMTQgMCAyNzEuODk4MTAxODA2NjQwNiA0MjMuMDA0MDI4MzIwMzEyNSI+JiN4YTsJPHN0eWxlIHR5cGU9InRleHQvY3NzIj4mI3hhOwkuc3Qwe2ZpbGw6IzQyODVmNDtmaWxsLXJ1bGU6ZXZlbm9kZH0mI3hhOwk8L3N0eWxlPiYjeGE7CTxwYXRoIGNsYXNzPSJzdDAiIGQ9Ik0xOTcuMzc4IDE0NC43NzRhMy4xMSAzLjExIDAgMCAxIDMuMTA1IDIuOTM0bC4wMDUuMTc3djE3LjEwN2EzLjExIDMuMTEgMCAwIDEtMi45MzQgMy4xMDVsLS4xNzcuMDA1aC0xMi40NDF2MzAuNjQ5YzAgMS4yMjcuMjk3IDIuNDM1Ljg2MiAzLjUyMmwuMTYxLjI5MyA4My44OTUgMTQ0LjI2MmExNS4yNiAxNS4yNiAwIDAgMSAuMTgyIDE0LjkzNmwtLjE4Mi4zMjQtMzAuNDMxIDUzLjI4NmExNS4yNiAxNS4yNiAwIDAgMS0xMi44NjEgNy42MjZsLS4zNTUuMDA0SDQ1LjY5MmExNS4yNiAxNS4yNiAwIDAgMS0xMy4wMzUtNy4zMjRsLS4xODEtLjMwNS0zMC40MzEtNTMuMjg2YTE1LjI2IDE1LjI2IDAgMCAxLS4xODItMTQuOTM2bC4xODItLjMyNCA4My42NzQtMTQ0LjI2MmMuNjIxLTEuMDc3IDEuMTYtMi4yODkgMS4yMzQtMy41MjhsLjAwOS0uMjg3di0zMC42NDlINzQuNTJjLTEuNjU4IDAtMy4wMTQtMS4yOTktMy4xMDUtMi45MzRsLS4wMDUtLjE3NnYtMTcuMTA3YTMuMTEgMy4xMSAwIDAgMSAyLjkzNC0zLjEwNWwuMTc2LS4wMDV6bS0zNS43NjkgMjMuMzI3aC01MS4zMnYzNS40MDVjMCAyLjUzMS0uNjI4IDUuMDE4LTEuODI2IDcuMjQybC0uMjE3LjM5TDI4LjAzMyAzNTAuOWE3LjYzIDcuNjMgMCAwIDAtLjEzOSA3LjM3NWwuMTQxLjI1NSAyMC43NDEgMzUuOTIxYTcuNjMgNy42MyAwIDAgMCA2LjMyNyAzLjgxbC4yODEuMDA1aDI1LjU3MmwtMjIuNjA1LTM5LjE1M2MtMS4zMTQtMi4yNzYtMS4zNjEtNS4wNjItLjE0MS03LjM3NWwuMTQxLS4yNTUgMTkuNjc5LTM0LjA4NmgxNDYuNjA2TDIxMi45ODggMjk3LjFoLTU0LjI1OWwtOC44MjEtMTUuMjc4aDU0LjMxMmwtMTYuMzMzLTI4LjQ2aC01NC43OGwtOC44MjEtMTUuMjc4aDU0LjgzM2wtMTUuNDY1LTI2Ljk0NmExNS4yNyAxNS4yNyAwIDAgMS0yLjAzOS03LjE4NWwtLjAwNy0uNDQ2em03Mi44NDQgMTY2LjQwMWwtNTQuMTgxLjAwMSA4LjgyMSAxNS41NTJoNTQuMjg1ek0xMDQuOTIxIDc5Ljc5NWM4LjQyNyAwIDE1LjI1OSA2LjgzMyAxNS4yNTkgMTUuMjYxcy02LjgzMiAxNS4yNTktMTUuMjU5IDE1LjI1OS0xNS4yNTktNi44MzItMTUuMjU5LTE1LjI1OSA2LjgzMi0xNS4yNjEgMTUuMjU5LTE1LjI2MXptNTcuNTc1LTMyLjc0M2MxMi42NDIgMCAyMi44OSAxMC4yNDcgMjIuODkgMjIuODg5cy0xMC4yNDkgMjIuODg5LTIyLjg5IDIyLjg4OS0yMi44ODktMTAuMjQ5LTIyLjg4OS0yMi44ODkgMTAuMjQ3LTIyLjg4OSAyMi44ODktMjIuODg5ek0xMjcuODEgMGM4LjQyNyAwIDE1LjI2MSA2LjgzMyAxNS4yNjEgMTUuMjYxUzEzNi4yMzcgMzAuNTIgMTI3LjgxIDMwLjUycy0xNS4yNTktNi44MzItMTUuMjU5LTE1LjI1OVMxMTkuMzg0IDAgMTI3LjgxIDB6Ii8+JiN4YTs8L3N2Zz4=;movable=1;resizable=1;rotatable=1;deletable=1;editable=1;locked=0;connectable=1;" vertex="1" parent="3HNEeKPpStS-Q2vuXZIp-7">
          <mxGeometry width="20" height="30" relative="1" as="geometry">
            <mxPoint x="20" y="15" as="offset" />
          </mxGeometry>
        </mxCell>
        <mxCell id="3HNEeKPpStS-Q2vuXZIp-14" style="edgeStyle=orthogonalEdgeStyle;rounded=0;html=1;labelBackgroundColor=none;startFill=0;startSize=4;endArrow=blockThin;endFill=1;endSize=4;jettySize=auto;orthogonalLoop=1;strokeColor=#4284F3;strokeWidth=2;fontSize=12;fontColor=#000000;align=center;dashed=0;startArrow=none;exitX=1;exitY=0.5;exitDx=0;exitDy=0;entryX=0;entryY=0.5;entryDx=0;entryDy=0;" edge="1" parent="H5XLg-262uGlo7exfHj2-715" source="3HNEeKPpStS-Q2vuXZIp-3" target="H5XLg-262uGlo7exfHj2-717">
          <mxGeometry relative="1" as="geometry">
            <mxPoint x="902" y="219.57999999999998" as="sourcePoint" />
            <mxPoint x="1007.4285714285714" y="219.57999999999998" as="targetPoint" />
            <Array as="points">
              <mxPoint x="810" y="229" />
              <mxPoint x="810" y="300" />
            </Array>
          </mxGeometry>
        </mxCell>
        <mxCell id="3HNEeKPpStS-Q2vuXZIp-15" style="edgeStyle=orthogonalEdgeStyle;rounded=0;html=1;labelBackgroundColor=none;startFill=0;startSize=4;endArrow=blockThin;endFill=1;endSize=4;jettySize=auto;orthogonalLoop=1;strokeColor=#4284F3;strokeWidth=2;fontSize=12;fontColor=#000000;align=center;dashed=0;startArrow=none;entryX=0;entryY=0.5;entryDx=0;entryDy=0;exitX=1;exitY=0.5;exitDx=0;exitDy=0;" edge="1" parent="H5XLg-262uGlo7exfHj2-715" source="3HNEeKPpStS-Q2vuXZIp-3" target="3HNEeKPpStS-Q2vuXZIp-7">
          <mxGeometry relative="1" as="geometry">
            <mxPoint x="790.0042857142857" y="170" as="sourcePoint" />
            <mxPoint x="831.1682857142855" y="90" as="targetPoint" />
            <Array as="points">
              <mxPoint x="810" y="229" />
              <mxPoint x="810" y="150" />
            </Array>
          </mxGeometry>
        </mxCell>
        <mxCell id="H5XLg-262uGlo7exfHj2-719" value="資料收集" style="rounded=1;absoluteArcSize=1;arcSize=2;html=1;strokeColor=#4284F3;gradientColor=none;shadow=0;dashed=1;fontSize=12;fontColor=#9E9E9E;align=left;verticalAlign=top;spacing=10;spacingTop=-4;fillColor=none;dashPattern=1 2;strokeWidth=2;" parent="1" vertex="1">
          <mxGeometry x="530" y="210" width="205" height="280" as="geometry" />
        </mxCell>
        <mxCell id="H5XLg-262uGlo7exfHj2-720" value="排程管理" style="rounded=1;absoluteArcSize=1;arcSize=2;html=1;strokeColor=#4284F3;gradientColor=none;shadow=0;dashed=1;fontSize=12;fontColor=#9E9E9E;align=left;verticalAlign=top;spacing=10;spacingTop=-4;fillColor=none;dashPattern=1 2;strokeWidth=2;" parent="1" vertex="1">
          <mxGeometry x="265" y="210" width="190" height="280" as="geometry" />
        </mxCell>
        <mxCell id="H5XLg-262uGlo7exfHj2-721" value="Architecture: Tibame NJR201 - Group 3 - 專題" style="fillColor=#4DA1F5;strokeColor=none;shadow=1;gradientColor=none;fontSize=14;align=left;spacingLeft=50;fontColor=#ffffff;html=1;" parent="1" vertex="1">
          <mxGeometry x="340" y="70" width="935" height="40" as="geometry" />
        </mxCell>
        <mxCell id="H5XLg-262uGlo7exfHj2-722" style="edgeStyle=orthogonalEdgeStyle;rounded=0;html=1;labelBackgroundColor=none;startFill=0;startSize=4;endArrow=blockThin;endFill=1;endSize=4;jettySize=auto;orthogonalLoop=1;strokeColor=#4284F3;strokeWidth=2;fontSize=12;fontColor=#000000;align=center;dashed=0;startArrow=none;" parent="1" source="H5XLg-262uGlo7exfHj2-729" target="H5XLg-262uGlo7exfHj2-735" edge="1">
          <mxGeometry relative="1" as="geometry" />
        </mxCell>
        <mxCell id="H5XLg-262uGlo7exfHj2-729" value="" style="strokeColor=#dddddd;shadow=1;strokeWidth=1;rounded=1;absoluteArcSize=1;arcSize=2;" parent="1" vertex="1">
          <mxGeometry x="275" y="329" width="165" height="60" as="geometry" />
        </mxCell>
        <mxCell id="H5XLg-262uGlo7exfHj2-730" value="&lt;font color=&quot;#000000&quot;&gt;Airflow&lt;/font&gt;" style="editableCssRules=.*;html=1;fontColor=#999999;shape=image;verticalLabelPosition=middle;verticalAlign=middle;labelPosition=right;align=left;spacingLeft=20;part=1;points=[];imageAspect=0;image=data:image/svg+xml,PHN2ZyB4bWxucz0iaHR0cDovL3d3dy53My5vcmcvMjAwMC9zdmciIHhtbG5zOnY9Imh0dHBzOi8vdmVjdGEuaW8vbmFubyIgd2lkdGg9IjE3Ljk1Njk3Nzg0NDIzODI4IiBoZWlnaHQ9IjIwLjAwOTI1NjM2MjkxNTA0IiB2aWV3Qm94PSItMC4wMDA0MjE5NjUxMTY0MDIxMzQzIDAuMDAwMDc0Njk5NTIxMDY0NzU4MyAxNy45NTY5Nzc4NDQyMzgyOCAyMC4wMDkyNTYzNjI5MTUwNCI+JiN4YTsJPHN0eWxlPiYjeGE7CQkuc3Qwe2ZpbGw6IzY2OWRmNjt9JiN4YTsJCS5zdDF7ZmlsbDojYWVjYmZhO30mI3hhOwkJLnN0MntmaWxsOiM0Mjg1ZjQ7fSYjeGE7CTwvc3R5bGU+JiN4YTsJPGcgZmlsbC1ydWxlPSJldmVub2RkIj4mI3hhOwkJPHBhdGggZD0iTTEzLjE5NiA0LjQ0N2wtNC4yMi0yLjUxYTIuODYgMi44NiAwIDAgMS0xLjI1LTEuNzFjMCAwIC4xNi0uMzIuMzgtLjJsNS4yNSAzLjFjLjYzLjM3LjI0IDIgLjI0IDJhLjc3Ljc3IDAgMCAwLS40LS42OHoiIGNsYXNzPSJzdDAiLz4mI3hhOwkJPHBhdGggZD0iTTE0LjQ2NiAxMC42ODdhLjM1LjM1IDAgMCAxLS4xNi4zM2wtMSAuNjh2LTcuOTVjMC0uMjcuMTctLjU2LS4wNi0uN2wuOTIuNjhhLjczLjczIDAgMCAxIC4zNS42NXoiIGNsYXNzPSJzdDEiLz4mI3hhOwkJPHBhdGggZD0iTTguOTc2IDExLjU5N2EuMzYuMzYgMCAwIDEtLjItLjA2bC0zLjQ2LTIuMDZ2LjlsMy42NiAyLjE4LjI5LS41N3MtLjIyLS4zOS0uMjktLjM5em0uMiAxLjhhLjM2LjM2IDAgMCAxLS40IDBsLTMuNDYtMi4wNnYuNjZhLjQyLjQyIDAgMCAwIC4xOS4zNWwzLjI4IDJhLjM3LjM3IDAgMCAwIC4zOCAwIDIgMiAwIDAgMCAuMi0uNTJsLS4xOS0uMzl6IiBjbGFzcz0ic3QwIi8+JiN4YTsJCTxwYXRoIGQ9Ik04Ljk3NiAxMC43MjdsMy42Ni0yLjE4di0uNDNhLjM5LjM5IDAgMCAwLS4xOS0uMzRsLTMuMjgtMmEuMzcuMzcgMCAwIDAtLjM4IDBsLTMuMjggMmEuNDEuNDEgMCAwIDAtLjE5LjM0di40M3oiIGNsYXNzPSJzdDEiLz4mI3hhOwkJPHBhdGggZD0iTTguOTc2IDkuODI3bC0zLjQ3LTIuMDVhLjQxLjQxIDAgMCAwLS4xOS4zNHYuNDNsMy42NiAyLjE4LjI4LS41NnoiIGNsYXNzPSJzdDAiLz4mI3hhOwkJPGcgY2xhc3M9InN0MiI+JiN4YTsJCQk8cGF0aCBkPSJNOC45NzYgMTEuNTk3djFsMy42Ni0yLjE4di0uOWwtMy40NiAyLjAyYS42NS42NSAwIDAgMS0uMi4wNnptLjIgMS44YS4zNi4zNiAwIDAgMS0uMi4wNnYuOWEuNS41IDAgMCAwIC4yMS0uMDVsMy4yOC0yYS4zOS4zOSAwIDAgMCAuMTktLjM1di0uNjZ6Ii8+JiN4YTsJCQk8cGF0aCBkPSJNMTIuNDQ2IDcuNzc3bC0zLjQ3IDIuMDV2LjlsMy42Ni0yLjE4di0uNDNhLjM5LjM5IDAgMCAwLS4xOS0uMzR6Ii8+JiN4YTsJCTwvZz4mI3hhOwkJPHBhdGggZD0iTTQuNzU2IDE1LjUyN2w0LjE1IDIuNDdhMi43MiAyLjcyIDAgMCAxIDEuMjggMS44LjE4LjE4IDAgMCAxLS4yOC4xOGwtNS40NS0zLjIzYy0uNTMtLjMyLS4wNy0xLjg4LS4wNy0xLjg4YS43Ny43NyAwIDAgMCAuMzcuNjZ6IiBjbGFzcz0ic3QwIi8+JiN4YTsJCTxwYXRoIGQ9Ik0zLjQ4NiAxNS43Mjd2LTYuNTZhLjQxLjQxIDAgMCAxIC4xOS0uMzNsMS0uNTl2Ny45MWMwIC4yNyAwIC42OS4yMS44M2wtMS4wNi0uNjZhLjc1Ljc1IDAgMCAxLS4zNC0uNnoiIGNsYXNzPSJzdDEiLz4mI3hhOwkJPHBhdGggZD0iTTcuMTM2IDMuNDU3YS43NS43NSAwIDAgMC0uNzQgMGwtNC4yIDIuNTRhMi42MyAyLjYzIDAgMCAxLTIuMDguMjYuMjMuMjMgMCAwIDEgMC0uNGMuMTgtLjA5IDYuMzItMy43NCA2LjMyLTMuNzQuMjMtLjE0Ljc0IDEuMzkuNzQgMS4zOXoiIGNsYXNzPSJzdDAiLz4mI3hhOwkJPHBhdGggZD0iTTcuMTI2IDIuMDc3bDUuMzIgMy4xNWEuMzcuMzcgMCAwIDEgLjIuMzF2MS4xOGwtNi42Ny0zLjk2YS43NS43NSAwIDAgMC0uNzQgMGwxLjE4LS42OWEuNzEuNzEgMCAwIDEgLjczIDB6IiBjbGFzcz0ic3QxIi8+JiN4YTsJCTxwYXRoIGQ9Ik0xMC43OTYgMTYuNDg3YS43My43MyAwIDAgMCAuNzQgMGw0LjItMi40OWEyLjYzIDIuNjMgMCAwIDEgMi4xLS4yNS4yMS4yMSAwIDAgMSAwIC4zOGwtNi4zMyAzLjc1Yy0uMjIuMTQtLjc0LTEuNC0uNzQtMS40eiIgY2xhc3M9InN0MCIvPiYjeGE7CQk8cGF0aCBkPSJNNS40ODYgMTQuNzQ3YS41Ni41NiAwIDAgMS0uMTctLjMzdi0xLjE2bDYuNjYgMy45M2EuNjkuNjkgMCAwIDAgLjczIDBsLTEuMTguN2EuNy43IDAgMCAxLS43NCAweiIgY2xhc3M9InN0MSIvPiYjeGE7CQk8cGF0aCBkPSJNMy4yMzYgNy44MDdhLjc2Ljc2IDAgMCAwLS4zNy42NXY1YTIuNzUgMi43NSAwIDAgMS0uODcgMiAuMTguMTggMCAwIDEtLjMtLjEzdi03LjU2YzAtLjI4IDEuNTQgMCAxLjU0IDB6IiBjbGFzcz0ic3QwIi8+JiN4YTsJCTxwYXRoIGQ9Ik02Ljc0NiA0LjUxN2EuMzQuMzQgMCAwIDEgLjM2IDBsMSAuNTktNi4wOCAzLjU2YS43Ny43NyAwIDAgMC0uMzcuNjZ2LTEuMzlhLjcyLjcyIDAgMCAxIC4zOC0uNjR6IiBjbGFzcz0ic3QxIi8+JiN4YTsJCTxwYXRoIGQ9Ik0xNS4xNDYgMTEuNDM3di01YTIuODEgMi44MSAwIDAgMSAuODQtMmMwIDAgLjMzLS4xMS4zMS4yMXMwIDcuMzcgMCA3LjM3Yy0uMzEuMzctMS42MSAwLTEuNjEgMGEuODEuODEgMCAwIDAgLjQ2LS41OHoiIGNsYXNzPSJzdDAiLz4mI3hhOwkJPHBhdGggZD0iTTE1Ljk3NiAxMi42MDdsLTQuNzQgMi44NWEuMzUuMzUgMCAwIDEtLjM3IDBsLTEtLjU3IDYuMTEtMy42N2EuNzcuNzcgMCAwIDAgLjM3LS42NnYxLjQ0Yy0uMDIuMjMtLjM3LjYxLS4zNy42MXoiIGNsYXNzPSJzdDEiLz4mI3hhOwk8L2c+JiN4YTs8L3N2Zz4=;" parent="H5XLg-262uGlo7exfHj2-729" vertex="1">
          <mxGeometry width="27" height="30" relative="1" as="geometry">
            <mxPoint x="16" y="15" as="offset" />
          </mxGeometry>
        </mxCell>
        <mxCell id="H5XLg-262uGlo7exfHj2-735" value="" style="strokeColor=#dddddd;shadow=1;strokeWidth=1;rounded=1;absoluteArcSize=1;arcSize=2;" parent="1" vertex="1">
          <mxGeometry x="552.5" y="329" width="170" height="60" as="geometry" />
        </mxCell>
        <mxCell id="H5XLg-262uGlo7exfHj2-736" value="&lt;font color=&quot;#000000&quot;&gt;爬蟲&lt;/font&gt;&lt;div&gt;&lt;font color=&quot;#000000&quot;&gt;Request&lt;/font&gt;&lt;/div&gt;" style="editableCssRules=.*;html=1;fontColor=#999999;shape=image;verticalLabelPosition=middle;verticalAlign=middle;labelPosition=right;align=left;spacingLeft=20;part=1;points=[];imageAspect=0;image=data:image/svg+xml,PHN2ZyB4bWxucz0iaHR0cDovL3d3dy53My5vcmcvMjAwMC9zdmciIHhtbG5zOnY9Imh0dHBzOi8vdmVjdGEuaW8vbmFubyIgd2lkdGg9IjE0LjUxOTk5OTUwNDA4OTM1NSIgaGVpZ2h0PSIyMCIgdmlld0JveD0iMCAwIDE0LjUxOTk5OTUwNDA4OTM1NSAyMCI+JiN4YTsJPHN0eWxlIHR5cGU9InRleHQvY3NzIj4mI3hhOwkuc3Qwe2ZpbGwtcnVsZTpldmVub2RkfSYjeGE7CS5zdDF7ZmlsbDojNjY5ZGY2O30mI3hhOwkuc3Qye2ZpbGw6I2FlY2JmYTt9JiN4YTsJLnN0M3tmaWxsOiM0Mjg1ZjQ7fSYjeGE7CTwvc3R5bGU+JiN4YTsJPGcgY2xhc3M9InN0MCI+JiN4YTsJCTxwYXRoIGNsYXNzPSJzdDEiIGQ9Ik03LjM3IDIuMDNsLTEuNzIuOTYgMS41MiAxLjUtLjAyIDEuNzMgMS4wMi4wMS4wMi0xLjczIDQuMjQgMi41Ni0uMDEgMS4wNyAxLjc3LjAzVjYuMTFMOS4wNSAzLjA0bC0uMjctLjk0eiIvPiYjeGE7CQk8cGF0aCBjbGFzcz0ic3QyIiBkPSJNNy4zNiAyLjAzbC0xLjQyLjM1LS4yOS42MUwuMzkgNS45Mi4zNiA3Ljk3IDIuMTQgOGwuMDItMS4wNyA0LjMxLTIuNDUtLjAyIDEuNzMuODYuMDEuMDYtNC4xOXoiLz4mI3hhOwkJPGcgY2xhc3M9InN0MSI+JiN4YTsJCQk8cGF0aCBkPSJNNy4zNiAyLjAzTDMuOTUgMCAyLjIxLjk1bDMuNDQgMi4wNCAxLjcyLS45NnptLjcxIDExLjc2bC0xLjcyLS4wMi0uMDIgMS43Mi44MiAyLjQ4IDEuNDItLjEyLjI5LS44NSA1LjI3LTIuOTMuMDMtMi4wOS0xLjc5LS4wMi0uMDIgMS4xLTQuMyAyLjQ1eiIvPiYjeGE7CQkJPHBhdGggZD0iTTcuMTUgMTcuOTdsLTMuNDYgMS45NGgtLjA1bC0xLjY2LS45OSAzLjQ5LTEuOTYgMS42OCAxLjAxeiIvPiYjeGE7CQk8L2c+JiN4YTsJCTxwYXRoIGNsYXNzPSJzdDMiIGQ9Ik0xMC44OC4wOWgtLjA1TDcuMzcgMi4wM2wxLjY4IDEuMDEgMy40OS0xLjk2ek0xMC42MiAyMGgtLjA1bC0zLjQyLTIuMDNoMCAwIDBsMS43Mi0uOTYgMy40NCAyLjA0eiIvPiYjeGE7CQk8cGF0aCBjbGFzcz0ic3QyIiBkPSJNLjMzIDEzLjg5di0yaDEuNzZsLS4wMSAxLjA0IDQuMjUgMi41Ni4wMi0xLjcyLjg2LjAxLS4wNiA0LjE4LTEuNjgtMXoiLz4mI3hhOwk8L2c+JiN4YTsJPGNpcmNsZSBjbGFzcz0ic3QyIiBjeD0iMTMuMzgiIGN5PSIxMC4wNCIgcj0iMS4xNCIvPiYjeGE7CTxjaXJjbGUgY2xhc3M9InN0MiIgY3g9IjEuMTQiIGN5PSI5Ljg4IiByPSIxLjE0Ii8+JiN4YTsJPGNpcmNsZSBjbGFzcz0ic3QyIiBjeD0iNy4zMiIgY3k9IjcuOTkiIHI9IjEuMTQiLz4mI3hhOwk8Y2lyY2xlIGNsYXNzPSJzdDIiIGN4PSI3LjIzIiBjeT0iMTIiIHI9IjEuMTQiLz4mI3hhOzwvc3ZnPg==;" parent="H5XLg-262uGlo7exfHj2-735" vertex="1">
          <mxGeometry width="22" height="30" relative="1" as="geometry">
            <mxPoint x="19" y="15" as="offset" />
          </mxGeometry>
        </mxCell>
        <mxCell id="3HNEeKPpStS-Q2vuXZIp-12" style="edgeStyle=orthogonalEdgeStyle;rounded=0;html=1;labelBackgroundColor=none;startFill=0;startSize=4;endArrow=blockThin;endFill=1;endSize=4;jettySize=auto;orthogonalLoop=1;strokeColor=#4284F3;strokeWidth=2;fontSize=12;fontColor=#000000;align=center;dashed=0;startArrow=none;exitX=1;exitY=0.5;exitDx=0;exitDy=0;entryX=0;entryY=0.5;entryDx=0;entryDy=0;" edge="1" parent="1" source="H5XLg-262uGlo7exfHj2-735" target="3HNEeKPpStS-Q2vuXZIp-3">
          <mxGeometry relative="1" as="geometry">
            <mxPoint x="690" y="340" as="sourcePoint" />
            <mxPoint x="803" y="340" as="targetPoint" />
          </mxGeometry>
        </mxCell>
      </root>
    </mxGraphModel>
  </diagram>
</mxfile>
